<svg xmlns="http://www.w3.org/2000/svg" viewBox="0 0 100 100" fill="#ffffff">
<g transform="translate(50,50) scale(0.952) translate(-51.00,-59.50)">
<path d="M12 63 Q12 53 23 51 L34 41 Q38 37 44 37 L64 37 Q71 37 75 43 L83 51 Q90 53 90 63 L90 68 Q90 72 86 72 L16 72 Q12 72 12 68 Z"/>
    <path d="M40 41 L63 41 Q68 41 71 46 L74 51 L40 51 Z" fill="#0b0b16" fill-opacity="0.3"/>
    <circle cx="31" cy="72" r="10"/><circle cx="31" cy="72" r="4.5" fill="#0b0b16" fill-opacity="0.32"/>
    <circle cx="71" cy="72" r="10"/><circle cx="71" cy="72" r="4.5" fill="#0b0b16" fill-opacity="0.32"/>
</g>
<circle cx="50" cy="50" r="44" fill="none" stroke="#ffffff" stroke-width="2.6"/>
<line x1="92.0" y1="50.0" x2="93.5" y2="50.0" stroke="#ffffff" stroke-opacity="0.55" stroke-width="1.4"/>
<line x1="86.4" y1="71.0" x2="87.7" y2="71.8" stroke="#ffffff" stroke-opacity="0.55" stroke-width="1.4"/>
<line x1="71.0" y1="86.4" x2="71.8" y2="87.7" stroke="#ffffff" stroke-opacity="0.55" stroke-width="1.4"/>
<line x1="50.0" y1="92.0" x2="50.0" y2="93.5" stroke="#ffffff" stroke-opacity="0.55" stroke-width="1.4"/>
<line x1="29.0" y1="86.4" x2="28.3" y2="87.7" stroke="#ffffff" stroke-opacity="0.55" stroke-width="1.4"/>
<line x1="13.6" y1="71.0" x2="12.3" y2="71.8" stroke="#ffffff" stroke-opacity="0.55" stroke-width="1.4"/>
<line x1="8.0" y1="50.0" x2="6.5" y2="50.0" stroke="#ffffff" stroke-opacity="0.55" stroke-width="1.4"/>
<line x1="13.6" y1="29.0" x2="12.3" y2="28.2" stroke="#ffffff" stroke-opacity="0.55" stroke-width="1.4"/>
<line x1="29.0" y1="13.6" x2="28.2" y2="12.3" stroke="#ffffff" stroke-opacity="0.55" stroke-width="1.4"/>
<line x1="50.0" y1="8.0" x2="50.0" y2="6.5" stroke="#ffffff" stroke-opacity="0.55" stroke-width="1.4"/>
<line x1="71.0" y1="13.6" x2="71.8" y2="12.3" stroke="#ffffff" stroke-opacity="0.55" stroke-width="1.4"/>
<line x1="86.4" y1="29.0" x2="87.7" y2="28.2" stroke="#ffffff" stroke-opacity="0.55" stroke-width="1.4"/>
</svg>
