<svg xmlns="http://www.w3.org/2000/svg" viewBox="0 0 100 100" fill="#ffffff">
<g transform="translate(50,50) scale(0.705) translate(-50.00,-52.00)">
<path d="M8 16 L92 16 L92 30 L82 30 L74 48 L66 30 L56 30 L48 52 L40 30 L30 30 L24 46 L16 30 L8 30 Z"/>
    <path d="M8 88 L92 88 L92 74 L84 74 L76 58 L68 74 L58 74 L50 54 L42 74 L32 74 L26 60 L18 74 L8 74 Z"/>
</g>
<circle cx="50" cy="50" r="44" fill="none" stroke="#ffffff" stroke-width="2.6"/>
<line x1="92.0" y1="50.0" x2="93.5" y2="50.0" stroke="#ffffff" stroke-opacity="0.55" stroke-width="1.4"/>
<line x1="86.4" y1="71.0" x2="87.7" y2="71.8" stroke="#ffffff" stroke-opacity="0.55" stroke-width="1.4"/>
<line x1="71.0" y1="86.4" x2="71.8" y2="87.7" stroke="#ffffff" stroke-opacity="0.55" stroke-width="1.4"/>
<line x1="50.0" y1="92.0" x2="50.0" y2="93.5" stroke="#ffffff" stroke-opacity="0.55" stroke-width="1.4"/>
<line x1="29.0" y1="86.4" x2="28.3" y2="87.7" stroke="#ffffff" stroke-opacity="0.55" stroke-width="1.4"/>
<line x1="13.6" y1="71.0" x2="12.3" y2="71.8" stroke="#ffffff" stroke-opacity="0.55" stroke-width="1.4"/>
<line x1="8.0" y1="50.0" x2="6.5" y2="50.0" stroke="#ffffff" stroke-opacity="0.55" stroke-width="1.4"/>
<line x1="13.6" y1="29.0" x2="12.3" y2="28.2" stroke="#ffffff" stroke-opacity="0.55" stroke-width="1.4"/>
<line x1="29.0" y1="13.6" x2="28.2" y2="12.3" stroke="#ffffff" stroke-opacity="0.55" stroke-width="1.4"/>
<line x1="50.0" y1="8.0" x2="50.0" y2="6.5" stroke="#ffffff" stroke-opacity="0.55" stroke-width="1.4"/>
<line x1="71.0" y1="13.6" x2="71.8" y2="12.3" stroke="#ffffff" stroke-opacity="0.55" stroke-width="1.4"/>
<line x1="86.4" y1="29.0" x2="87.7" y2="28.2" stroke="#ffffff" stroke-opacity="0.55" stroke-width="1.4"/>
</svg>
