<svg xmlns="http://www.w3.org/2000/svg" viewBox="0 0 100 100" fill="#ffffff">
<g transform="translate(50,50) scale(0.900) translate(-48.50,-50.25)">
<circle cx="50" cy="53" r="24"/>
    <circle cx="50" cy="53" r="15" fill="#0b0b16" fill-opacity="0.28"/>
    <rect x="14" y="24" width="3" height="9"/><rect x="19" y="24" width="3" height="9"/><rect x="24" y="24" width="3" height="9"/>
    <rect x="14" y="31" width="13" height="5" rx="2"/>
    <rect x="18.5" y="35" width="4" height="42" rx="2"/>
    <path d="M76 56 L76 39 Q76 28 80.5 23.5 Q83 30 83 43 L83 56 Z"/>
    <rect x="76.5" y="54" width="6" height="23" rx="3"/>
</g>
<circle cx="50" cy="50" r="44" fill="none" stroke="#ffffff" stroke-width="2.6"/>
<line x1="92.0" y1="50.0" x2="93.5" y2="50.0" stroke="#ffffff" stroke-opacity="0.55" stroke-width="1.4"/>
<line x1="86.4" y1="71.0" x2="87.7" y2="71.8" stroke="#ffffff" stroke-opacity="0.55" stroke-width="1.4"/>
<line x1="71.0" y1="86.4" x2="71.8" y2="87.7" stroke="#ffffff" stroke-opacity="0.55" stroke-width="1.4"/>
<line x1="50.0" y1="92.0" x2="50.0" y2="93.5" stroke="#ffffff" stroke-opacity="0.55" stroke-width="1.4"/>
<line x1="29.0" y1="86.4" x2="28.3" y2="87.7" stroke="#ffffff" stroke-opacity="0.55" stroke-width="1.4"/>
<line x1="13.6" y1="71.0" x2="12.3" y2="71.8" stroke="#ffffff" stroke-opacity="0.55" stroke-width="1.4"/>
<line x1="8.0" y1="50.0" x2="6.5" y2="50.0" stroke="#ffffff" stroke-opacity="0.55" stroke-width="1.4"/>
<line x1="13.6" y1="29.0" x2="12.3" y2="28.2" stroke="#ffffff" stroke-opacity="0.55" stroke-width="1.4"/>
<line x1="29.0" y1="13.6" x2="28.2" y2="12.3" stroke="#ffffff" stroke-opacity="0.55" stroke-width="1.4"/>
<line x1="50.0" y1="8.0" x2="50.0" y2="6.5" stroke="#ffffff" stroke-opacity="0.55" stroke-width="1.4"/>
<line x1="71.0" y1="13.6" x2="71.8" y2="12.3" stroke="#ffffff" stroke-opacity="0.55" stroke-width="1.4"/>
<line x1="86.4" y1="29.0" x2="87.7" y2="28.2" stroke="#ffffff" stroke-opacity="0.55" stroke-width="1.4"/>
</svg>
